<?xml version="1.0" standalone="no"?>
<!DOCTYPE svg PUBLIC "-//W3C//DTD SVG 20010904//EN"
 "http://www.w3.org/TR/2001/REC-SVG-20010904/DTD/svg10.dtd">
<svg version="1.0" xmlns="http://www.w3.org/2000/svg"
 width="1024.000000pt" height="415.000000pt" viewBox="0 0 1024.000000 415.000000"
 preserveAspectRatio="xMidYMid meet">

<g transform="translate(0.000000,415.000000) scale(0.100000,-0.100000)"
fill="#000000" stroke="none">
<path d="M0 2075 l0 -2075 5120 0 5120 0 0 2075 0 2075 -5120 0 -5120 0 0
-2075z m1875 847 c-202 -198 -314 -305 -363 -346 -22 -19 -23 -19 -38 0 -14
17 -15 17 -10 1 4 -14 1 -16 -18 -11 -13 3 -39 1 -58 -4 -23 -6 -41 -6 -53 0
-12 7 -16 7 -11 0 3 -5 -1 -13 -10 -16 -24 -9 -46 -7 -39 4 4 6 10 8 15 5 5
-3 10 2 12 10 2 9 127 139 278 290 l274 275 116 0 115 0 -210 -208z m685 202
c0 -7 -463 -468 -581 -579 -133 -125 -141 -132 -134 -113 6 15 3 16 -27 8 -18
-6 -34 -10 -35 -10 -2 0 -3 -8 -3 -17 0 -15 -1 -15 -13 1 -10 14 -17 15 -41 6
-20 -7 -32 -8 -40 0 -5 5 -15 10 -21 10 -5 0 -3 -5 5 -10 13 -8 13 -11 1 -22
-11 -11 -14 -11 -18 0 -4 10 -8 10 -19 1 -9 -7 -14 -8 -14 -1 0 8 217 227 715
721 10 10 225 15 225 5z m1490 -575 c36 -5 88 -20 115 -33 53 -24 115 -71 115
-87 0 -6 -14 -23 -31 -39 l-31 -28 -46 29 c-72 46 -134 62 -216 57 -129 -8
-224 -70 -275 -178 -35 -73 -37 -191 -4 -262 30 -66 95 -132 156 -159 72 -33
218 -33 290 -1 l47 21 0 136 0 135 55 0 55 0 0 -159 0 -160 -32 -24 c-88 -64
-230 -95 -347 -76 -244 38 -405 254 -362 487 38 208 189 332 426 350 11 1 49
-3 85 -9z m-1268 -281 c3 -281 3 -283 29 -333 15 -30 42 -62 68 -80 40 -28 49
-30 129 -30 78 0 92 3 136 29 38 22 53 39 74 85 26 55 26 59 30 334 l4 278 52
-3 51 -3 0 -280 c0 -340 -6 -367 -94 -456 -70 -69 -134 -92 -255 -91 -199 1
-313 104 -336 303 -11 95 -14 512 -3 522 3 4 30 7 59 7 l52 0 4 -282z m2306
230 l-3 -53 -227 -3 -228 -2 0 -125 0 -125 205 0 205 0 0 -50 0 -50 -205 0
-205 0 0 -130 0 -130 238 -2 237 -3 0 -50 0 -50 -297 -3 -298 -2 0 415 0 415
291 0 290 0 -3 -52z m322 -308 l0 -360 219 0 c240 0 228 4 227 -65 l-1 -40
-280 0 -280 0 -3 400 c-1 220 0 406 3 412 3 8 25 13 60 13 l55 0 0 -360z
m1097 336 c76 -24 127 -77 142 -143 16 -79 0 -141 -49 -189 -22 -22 -40 -42
-40 -45 0 -4 11 -10 24 -13 34 -8 83 -63 102 -112 23 -62 15 -141 -20 -194
-57 -86 -176 -113 -486 -108 l-185 3 -3 400 c-1 220 0 406 3 414 8 21 440 10
512 -13z m493 -336 l0 -360 223 -2 222 -3 0 -50 0 -50 -280 0 -280 0 -3 400
c-1 220 0 406 3 412 3 8 25 13 60 13 l55 0 0 -360z m698 -52 l-3 -413 -52 0
c-29 0 -53 3 -53 8 0 4 0 189 0 412 l0 405 55 0 55 0 -2 -412z m810 360 l-3
-53 -137 -3 -138 -3 -2 -357 -3 -357 -55 0 -55 0 -3 357 -2 357 -138 3 -137 3
-3 53 -3 52 341 0 341 0 -3 -52z m732 10 c-1 -38 -9 -53 -69 -128 -38 -47
-152 -190 -255 -317 l-186 -233 263 -2 262 -3 0 -50 0 -50 -342 -3 -343 -2 0
44 c0 40 7 52 73 133 40 48 125 153 189 233 64 80 145 181 181 225 l65 80
-249 3 -249 2 0 55 0 55 330 0 330 0 0 -42z m-7180 -308 c0 -5 -2 -10 -4 -10
-3 0 -8 5 -11 10 -3 6 -1 10 4 10 6 0 11 -4 11 -10z m169 -157 c80 -82 185
-190 235 -240 l91 -93 -109 0 -109 0 -150 148 c-188 186 -229 233 -216 253 8
12 10 12 20 -1 9 -13 10 -13 6 2 -6 17 55 78 77 78 6 0 76 -66 155 -147z
m-299 -180 c41 -43 92 -97 113 -119 l38 -41 -113 -2 -114 -2 -61 63 c-90 92
-108 117 -94 131 9 9 14 8 21 -3 5 -8 10 -12 10 -7 0 4 0 9 0 12 0 13 42 45
52 39 7 -4 8 -3 4 4 -4 7 -1 18 6 26 17 18 40 2 138 -101z"/>
<path d="M1495 2590 c3 -5 8 -10 11 -10 2 0 4 5 4 10 0 6 -5 10 -11 10 -5 0
-7 -4 -4 -10z"/>
<path d="M6110 2320 l0 -131 163 3 c134 2 168 6 200 22 90 45 89 168 -3 213
-28 15 -67 19 -197 21 l-163 3 0 -131z"/>
<path d="M6110 1955 l0 -137 188 4 c173 3 190 5 223 25 58 36 77 110 44 173
-29 57 -60 65 -267 68 l-188 4 0 -137z"/>
</g>
</svg>
